<?xml version="1.0" standalone="no"?>
<!DOCTYPE svg PUBLIC "-//W3C//DTD SVG 20010904//EN"
 "http://www.w3.org/TR/2001/REC-SVG-20010904/DTD/svg10.dtd">
<svg version="1.0" xmlns="http://www.w3.org/2000/svg"
 width="200.000000pt" height="200.000000pt" viewBox="0 0 200.000000 200.000000"
 preserveAspectRatio="xMidYMid meet">
<metadata>
Created by potrace 1.11, written by Peter Selinger 2001-2013
</metadata>
<g transform="translate(0.000000,200.000000) scale(0.100000,-0.100000)"
fill="#000000" stroke="none">
<path d="M0 1000 l0 -1000 1000 0 1000 0 0 1000 0 1000 -1000 0 -1000 0 0
-1000z m1232 681 c151 -39 327 -150 344 -217 4 -14 1 -43 -6 -63 -11 -36 -10
-40 29 -101 88 -136 123 -340 86 -506 -28 -128 -97 -262 -175 -342 -35 -35
-77 -42 -124 -21 -21 10 -29 8 -58 -14 -106 -81 -258 -122 -423 -114 -148 8
-263 46 -380 128 -95 66 -118 105 -96 166 12 31 10 38 -12 72 -143 216 -157
489 -37 719 85 163 161 223 226 178 19 -14 25 -12 67 18 62 44 154 84 230 101
94 20 240 18 329 -4z"/>
<path d="M785 1595 c-27 -7 -70 -23 -95 -34 -44 -19 -44 -20 -41 -65 2 -44 1
-47 -76 -123 -130 -130 -187 -264 -185 -443 0 -74 6 -113 26 -175 35 -108 36
-110 90 -106 44 2 47 1 123 -76 129 -129 256 -183 433 -183 99 0 171 14 252
49 45 19 47 22 38 46 -15 39 3 70 83 149 122 120 177 253 177 427 0 99 -15
174 -50 249 -21 44 -22 45 -65 42 -43 -4 -45 -2 -122 75 -86 86 -178 142 -279
168 -72 19 -240 19 -309 0z m150 -395 c21 -44 42 -80 45 -80 3 0 24 36 45 80
l39 80 73 0 c73 0 74 0 62 -22 -7 -13 -38 -69 -71 -126 -32 -57 -58 -108 -58
-113 0 -5 34 -68 74 -139 l75 -130 -75 0 -74 0 -42 85 c-23 47 -45 85 -48 85
-3 0 -25 -38 -48 -85 l-42 -85 -74 0 -75 0 76 132 75 131 -25 51 c-15 28 -47
88 -73 134 l-46 82 74 0 74 0 39 -80z"/>
</g>
</svg>
