<svg width="64" height="64" viewBox="0 0 64 64" fill="none" xmlns="http://www.w3.org/2000/svg">
    <path d="M56 48V50.6667C56 52.0812 55.4381 53.4377 54.4379 54.4379C53.4377 55.4381 52.0812 56 50.6667 56H13.3333C11.9188 56 10.5623 55.4381 9.5621 54.4379C8.5619 53.4377 8 52.0812 8 50.6667V13.3333C8 11.9188 8.5619 10.5623 9.5621 9.5621C10.5623 8.5619 11.9188 8 13.3333 8H50.6667C52.0812 8 53.4377 8.5619 54.4379 9.5621C55.4381 10.5623 56 11.9188 56 13.3333V16H32C30.5855 16 29.229 16.5619 28.2288 17.5621C27.2286 18.5623 26.6667 19.9188 26.6667 21.3333V42.6667C26.6667 44.0812 27.2286 45.4377 28.2288 46.4379C29.229 47.4381 30.5855 48 32 48H56ZM32 42.6667H58.6667V21.3333H32V42.6667ZM42.6667 36C41.6058 36 40.5884 35.5786 39.8382 34.8284C39.0881 34.0783 38.6667 33.0609 38.6667 32C38.6667 30.9391 39.0881 29.9217 39.8382 29.1716C40.5884 28.4214 41.6058 28 42.6667 28C43.7275 28 44.7449 28.4214 45.4951 29.1716C46.2452 29.9217 46.6667 30.9391 46.6667 32C46.6667 33.0609 46.2452 34.0783 45.4951 34.8284C44.7449 35.5786 43.7275 36 42.6667 36Z"
          fill="#E4A951"/>
</svg>